<svg width="268" height="80" viewBox="0 0 268 80" fill="none" xmlns="http://www.w3.org/2000/svg">
<path d="M0 0L60 8.98876V69.2135L0 80V0Z" fill="#2284F8"/>
<path d="M93.2812 53.0039C91.237 53.9935 88.5677 54.4883 85.2734 54.4883C80.9766 54.4883 77.5977 53.2253 75.1367 50.6992C72.6758 48.1732 71.4453 44.8073 71.4453 40.6016C71.4453 36.1224 72.8255 32.4896 75.5859 29.7031C78.3594 26.9167 81.9531 25.5234 86.3672 25.5234C89.1016 25.5234 91.4062 25.8685 93.2812 26.5586V32.6328C91.4062 31.513 89.2708 30.9531 86.875 30.9531C84.2448 30.9531 82.1224 31.7799 80.5078 33.4336C78.8932 35.0872 78.0859 37.3268 78.0859 40.1523C78.0859 42.8607 78.8477 45.0221 80.3711 46.6367C81.8945 48.2383 83.9453 49.0391 86.5234 49.0391C88.9844 49.0391 91.237 48.4401 93.2812 47.2422V53.0039ZM122.402 54H116.074V42.5938H104.473V54H98.1641V25.9922H104.473V37.1641H116.074V25.9922H122.402V54ZM153.457 54H146.582L144.59 47.7695H134.629L132.656 54H125.82L136.016 25.9922H143.496L153.457 54ZM143.145 42.9258L140.137 33.5117C139.915 32.8086 139.759 31.9688 139.668 30.9922H139.512C139.447 31.8125 139.284 32.6263 139.023 33.4336L135.977 42.9258H143.145ZM180.449 54H173.203L168.848 46.793C168.522 46.2461 168.21 45.7578 167.91 45.3281C167.611 44.8984 167.305 44.5339 166.992 44.2344C166.693 43.9219 166.374 43.6875 166.035 43.5312C165.71 43.362 165.352 43.2773 164.961 43.2773H163.262V54H156.953V25.9922H166.953C173.75 25.9922 177.148 28.5312 177.148 33.6094C177.148 34.5859 176.999 35.4909 176.699 36.3242C176.4 37.1445 175.977 37.8867 175.43 38.5508C174.883 39.2148 174.219 39.7878 173.438 40.2695C172.669 40.7513 171.81 41.1289 170.859 41.4023V41.4805C171.276 41.6107 171.68 41.8255 172.07 42.125C172.461 42.4115 172.839 42.75 173.203 43.1406C173.568 43.5312 173.913 43.9544 174.238 44.4102C174.577 44.8529 174.883 45.2891 175.156 45.7188L180.449 54ZM163.262 30.7188V38.5117H165.996C167.35 38.5117 168.438 38.1211 169.258 37.3398C170.091 36.5456 170.508 35.5625 170.508 34.3906C170.508 31.9427 169.043 30.7188 166.113 30.7188H163.262ZM201.699 31.1289H193.711V54H187.383V31.1289H179.434V25.9922H201.699V31.1289ZM228.965 54H221.719L217.363 46.793C217.038 46.2461 216.725 45.7578 216.426 45.3281C216.126 44.8984 215.82 44.5339 215.508 44.2344C215.208 43.9219 214.889 43.6875 214.551 43.5312C214.225 43.362 213.867 43.2773 213.477 43.2773H211.777V54H205.469V25.9922H215.469C222.266 25.9922 225.664 28.5312 225.664 33.6094C225.664 34.5859 225.514 35.4909 225.215 36.3242C224.915 37.1445 224.492 37.8867 223.945 38.5508C223.398 39.2148 222.734 39.7878 221.953 40.2695C221.185 40.7513 220.326 41.1289 219.375 41.4023V41.4805C219.792 41.6107 220.195 41.8255 220.586 42.125C220.977 42.4115 221.354 42.75 221.719 43.1406C222.083 43.5312 222.428 43.9544 222.754 44.4102C223.092 44.8529 223.398 45.2891 223.672 45.7188L228.965 54ZM211.777 30.7188V38.5117H214.512C215.866 38.5117 216.953 38.1211 217.773 37.3398C218.607 36.5456 219.023 35.5625 219.023 34.3906C219.023 31.9427 217.559 30.7188 214.629 30.7188H211.777ZM237.91 54H231.602V25.9922H237.91V54ZM267.168 54H259.688L254.863 44.8789C254.681 44.5404 254.492 43.9154 254.297 43.0039H254.219C254.128 43.4336 253.913 44.0846 253.574 44.957L248.73 54H241.211L250.137 39.9961L241.973 25.9922H249.648L253.652 34.3906C253.965 35.0547 254.245 35.8424 254.492 36.7539H254.57C254.727 36.207 255.02 35.3932 255.449 34.3125L259.902 25.9922H266.934L258.535 39.8789L267.168 54Z" fill="white"/>
<path d="M33.06 51.24C34.7 51.24 36.08 51 37.2 50.52C38.36 50.04 39.34 49.5 40.14 48.9C40.94 48.3 41.64 47.76 42.24 47.28C42.88 46.8 43.52 46.56 44.16 46.56C44.96 46.56 45.36 47.16 45.36 48.36C45.36 49 45.28 49.78 45.12 50.7C44.96 51.58 44.74 52.58 44.46 53.7C44.3 54.38 43.9 55.12 43.26 55.92C42.66 56.72 41.82 57.48 40.74 58.2C39.66 58.88 38.32 59.46 36.72 59.94C35.16 60.38 33.36 60.6 31.32 60.6C29.28 60.6 27.24 60.3 25.2 59.7C23.16 59.1 21.34 58.08 19.74 56.64C18.14 55.2 16.84 53.26 15.84 50.82C14.84 48.38 14.34 45.32 14.34 41.64C14.34 40.32 14.42 38.8 14.58 37.08C14.78 35.32 15.14 33.52 15.66 31.68C16.18 29.84 16.9 28.04 17.82 26.28C18.78 24.48 20 22.88 21.48 21.48C22.96 20.08 24.76 18.96 26.88 18.12C29.04 17.24 31.6 16.8 34.56 16.8C36.92 16.8 38.96 17.08 40.68 17.64C42.44 18.2 43.88 18.98 45 19.98C46.16 20.94 47 22.08 47.52 23.4C48.08 24.72 48.36 26.12 48.36 27.6C48.36 30.16 47.6 32.04 46.08 33.24C44.6 34.4 42.48 34.98 39.72 34.98C38.84 34.98 38.28 34.92 38.04 34.8C37.84 34.64 37.74 34.34 37.74 33.9C37.7 32.54 37.66 31.36 37.62 30.36C37.58 29.36 37.44 28.54 37.2 27.9C36.96 27.22 36.58 26.74 36.06 26.46C35.58 26.14 34.9 25.98 34.02 25.98C32.74 25.98 31.64 26.26 30.72 26.82C29.84 27.34 29.08 28.04 28.44 28.92C27.84 29.76 27.34 30.72 26.94 31.8C26.58 32.88 26.28 33.98 26.04 35.1C25.84 36.22 25.7 37.3 25.62 38.34C25.58 39.38 25.56 40.28 25.56 41.04C25.56 44.72 26.16 47.34 27.36 48.9C28.6 50.46 30.5 51.24 33.06 51.24Z" fill="white"/>
</svg>
